#!OML:ASF X:\für Bonn\!DataBase\2005_08_12_Daniel\c3d\Daniel.ASF
:FULLY-SPECIFIED
:DEGREES
16
root -3.21531 16.8992 -2.96708 313.059 -81.9108 -324.056
lowerback 20.7131 -2.68617 -2.31917
upperback 1.09518 -4.5417 -2.90514
thorax -10.4814 -2.16859 -0.539649
lowerneck 4.49318 1.86622 -3.49308
upperneck 4.95717 2.23554 0.860991
head 0.727985 1.02116 0.822845
rclavicle 5.10085e-015 1.98785e-015
rhumerus 58.0892 -9.57368 -112.881
rradius 6.9835
rwrist 81.8711
rhand -16.1754 11.4509
rfingers 7.12502
rthumb 10.031 -18.2901
lclavicle 5.10085e-015 1.98785e-015
lhumerus 56.906 4.67592 98.2215
lradius 10.7171
lwrist -68.1581
lhand -14.6296 3.39379
lfingers 7.12502
lthumb 11.522 33.0571
rfemur -0.227912 2.94085 12.2117
rtibia 35.5725
rfoot -33.2937 -4.6258
rtoes -16.5261
lfemur -9.77775 -9.69413 -21.411
ltibia 40.5392
lfoot -28.9464 -2.15949
ltoes -1.09116
17
root -3.20484 16.8636 -2.97003 312.98 -81.8598 -324.102
lowerback 21.159 -2.69072 -2.35173
upperback 1.13395 -4.5759 -2.90057
thorax -10.6823 -2.17979 -0.485867
lowerneck 4.48132 1.87571 -3.51372
upperneck 4.84664 2.25029 0.851926
head 0.695421 1.03039 0.822595
rclavicle 1.94001e-014 7.15625e-015
rhumerus 58.1414 -9.4586 -112.72
rradius 6.93862
rwrist 81.6163
rhand -16.3081 11.4555
rfingers 7.12502
rthumb 9.90294 -18.2916
lclavicle 1.94001e-014 7.15625e-015
lhumerus 56.9932 4.58656 98.0965
lradius 10.6377
lwrist -68.0655
lhand -14.5905 3.33043
lfingers 7.12502
lthumb 11.5597 32.9916
rfemur -0.784034 1.64291 11.7343
rtibia 36.6067
rfoot -32.7388 -3.76944
rtoes -15.9169
lfemur -10.1162 -9.38865 -21.3635
ltibia 41.1978
lfoot -28.7808 -2.41815
ltoes -0.906907
18
root -3.19358 16.821 -2.97202 313.049 -81.81 -324.313
lowerback 21.6512 -2.70939 -2.34379
upperback 1.16266 -4.62216 -2.90169
thorax -10.9234 -2.19774 -0.454902
lowerneck 4.49476 1.89161 -3.54011
upperneck 4.73028 2.2717 0.856522
head 0.656589 1.04286 0.827183
rclavicle 1.74092e-015 2.24627e-014
rhumerus 58.1936 -9.35805 -112.563
rradius 6.86881
rwrist 81.3609
rhand -16.452 11.4494
rfingers 7.12502
rthumb 9.76406 -18.3043
lclavicle 1.74092e-015 2.24627e-014
lhumerus 57.0615 4.48831 97.9631
lradius 10.5794
lwrist -67.9915
lhand -14.5907 3.26361
lfingers 7.12502
lthumb 11.5595 32.9248
rfemur -1.38273 0.292599 11.2479
rtibia 37.7678
rfoot -32.227 -2.89727
rtoes -15.2282
lfemur -10.5276 -9.07044 -21.3
ltibia 41.9824
lfoot -28.5621 -2.63286
ltoes -0.565458
19
root -3.18225 16.7731 -2.97321 312.914 -81.7437 -324.312
lowerback 22.1273 -2.71312 -2.35503
upperback 1.21547 -4.655 -2.92055
thorax -11.128 -2.21015 -0.437638
lowerneck 4.43401 1.88899 -3.56334
upperneck 4.62503 2.2722 0.870629
head 0.633741 1.04536 0.83534
rclavicle -3.52222e-015 -2.00773e-014
rhumerus 58.3027 -9.27034 -112.416
rradius 6.84783
rwrist 81.165
rhand -16.566 11.4502
rfingers 7.12502
rthumb 9.65412 -18.3086
lclavicle -3.52222e-015 -2.00773e-014
lhumerus 57.1818 4.28034 97.7034
lradius 10.5013
lwrist -67.7704
lhand -14.6039 3.21227
lfingers 7.12502
lthumb 11.5468 32.8742
rfemur -2.054 -1.09354 10.7039
rtibia 39.0569
rfoot -31.7461 -2.0611
rtoes -14.5985
lfemur -11.004 -8.76048 -21.2778
ltibia 42.8861
lfoot -28.3261 -2.79322
ltoes -0.0832967
20
root -3.17031 16.7168 -2.97287 312.841 -81.6841 -324.385
lowerback 22.6232 -2.72553 -2.37127
upperback 1.26732 -4.69726 -2.90717
thorax -11.3404 -2.22511 -0.377706
lowerneck 4.41484 1.90372 -3.62673
upperneck 4.49447 2.29283 0.857723
head 0.595768 1.05725 0.840996
rclavicle -8.89251e-015 -7.15625e-015
rhumerus 58.3673 -9.13277 -112.232
rradius 6.88726
rwrist 80.9685
rhand -16.6563 11.4554
rfingers 7.12502
rthumb 9.56701 -18.3074
lclavicle -8.89251e-015 -7.15625e-015
lhumerus 57.3246 4.15707 97.5337
lradius 10.4315
lwrist -67.6679
lhand -14.5616 3.1707
lfingers 7.12502
lthumb 11.5876 32.8303
rfemur -2.77253 -2.53144 10.1435
rtibia 40.4685
rfoot -31.328 -1.17937
rtoes -14.1597
lfemur -11.546 -8.39893 -21.2338
ltibia 43.9217
lfoot -28.113 -2.91072
ltoes 0.157804
21
root -3.1582 16.6533 -2.97264 312.87 -81.6216 -324.595
lowerback 23.1594 -2.74253 -2.33932
upperback 1.33169 -4.7391 -2.92341
thorax -11.5667 -2.24338 -0.375974
lowerneck 4.40222 1.90848 -3.66014
upperneck 4.34061 2.301 0.864567
head 0.549918 1.06397 0.847651
rclavicle 1.05045e-014 3.04141e-014
rhumerus 58.4515 -9.05283 -112.079
rradius 6.96343
rwrist 80.7956
rhand -16.7346 11.5176
rfingers 7.12502
rthumb 9.49147 -18.2486
lclavicle 1.05045e-014 3.04141e-014
lhumerus 57.4777 3.93186 97.2508
lradius 10.3553
lwrist -67.4633
lhand -14.4715 3.09319
lfingers 7.12502
lthumb 11.6745 32.7479
rfemur -3.50179 -3.91798 9.60078
rtibia 41.9911
rfoot -30.9998 -0.322242
rtoes -13.8444
lfemur -12.1329 -8.06838 -21.1824
ltibia 45.0794
lfoot -27.942 -2.90714
ltoes 0.0266785
22
root -3.14631 16.5821 -2.97162 312.872 -81.5532 -324.769
lowerback 23.6893 -2.76633 -2.31418
upperback 1.39469 -4.79148 -2.94168
thorax -11.79 -2.26625 -0.369185
lowerneck 4.41704 1.91688 -3.69281
upperneck 4.15971 2.31276 0.879412
head 0.491126 1.07284 0.856178
rclavicle -5.35538e-014 -1.86858e-014
rhumerus 58.538 -8.96764 -111.926
rradius 7.0831
rwrist 80.6178
rhand -16.7886 11.5877
rfingers 7.12502
rthumb 9.43932 -18.1809
lclavicle -5.35538e-014 -1.86858e-014
lhumerus 57.6372 3.70105 96.918
lradius 10.301
lwrist -67.2424
lhand -14.3984 3.04122
lfingers 7.12502
lthumb 11.7449 32.6919
rfemur -4.28845 -5.26358 9.05626
rtibia 43.6208
rfoot -30.7775 0.545234
rtoes -13.9214
lfemur -12.7976 -7.72628 -21.1306
ltibia 46.3651
lfoot -27.8192 -2.98289
ltoes -0.255723
23
root -3.13244 16.5035 -2.96943 312.697 -81.5059 -324.784
lowerback 24.2518 -2.77442 -2.32072
upperback 1.4705 -4.83051 -2.94009
thorax -12.0109 -2.28061 -0.324966
lowerneck 4.38373 1.92228 -3.71123
upperneck 4.01666 2.32377 0.850412
head 0.452576 1.08095 0.849461
rclavicle 2.59228e-014 1.55052e-014
rhumerus 58.6253 -8.83198 -111.764
rradius 7.28231
rwrist 80.4644
rhand -16.7829 11.6729
rfingers 7.12502
rthumb 9.44483 -18.0954
lclavicle 2.59228e-014 1.55052e-014
lhumerus 57.8171 3.54301 96.7159
lradius 10.3304
lwrist -67.1622
lhand -14.2328 2.94722
lfingers 7.12502
lthumb 11.9046 32.5888
rfemur -5.11665 -6.51595 8.51188
rtibia 45.3426
rfoot -30.6103 1.4433
rtoes -13.9818
lfemur -13.5134 -7.34806 -21.0864
ltibia 47.7625
lfoot -27.7152 -3.12681
ltoes -0.623544
24
root -3.11678 16.4153 -2.96608 312.421 -81.4954 -324.696
lowerback 24.8417 -2.77416 -2.29542
upperback 1.52726 -4.85377 -2.95399
thorax -12.2717 -2.28884 -0.31965
lowerneck 4.39608 1.93191 -3.69342
upperneck 3.86311 2.3392 0.841333
head 0.403414 1.09176 0.842258
rclavicle -1.05666e-014 7.55382e-015
rhumerus 58.723 -8.73031 -111.621
rradius 7.48714
rwrist 80.3661
rhand -16.7446 11.684
rfingers 7.12502
rthumb 9.48174 -18.0827
lclavicle -1.05666e-014 7.55382e-015
lhumerus 57.9843 3.35298 96.4653
lradius 10.3585
lwrist -67.0617
lhand -14.0891 2.88553
lfingers 7.12502
lthumb 12.0432 32.519
rfemur -6.00754 -7.64962 8.00655
rtibia 47.1648
rfoot -30.4621 2.41277
rtoes -13.8138
lfemur -14.294 -6.91081 -21.0151
ltibia 49.2541
lfoot -27.656 -3.3846
ltoes -0.820849
25
root -3.10087 16.3223 -2.96214 312.044 -81.4874 -324.534
lowerback 25.4327 -2.76564 -2.29902
upperback 1.61924 -4.87185 -2.95185
thorax -12.487 -2.29404 -0.282223
lowerneck 4.39091 1.93798 -3.67492
upperneck 3.66618 2.35189 0.796792
head 0.344407 1.102 0.82386
rclavicle 3.26877e-014 1.98785e-016
rhumerus 58.9376 -8.55309 -111.482
rradius 7.6297
rwrist 80.1778
rhand -16.6915 11.7454
rfingers 7.12502
rthumb 9.53303 -18.0189
lclavicle 3.26877e-014 1.98785e-016
lhumerus 58.2136 3.12395 96.1542
lradius 10.4335
lwrist -66.8003
lhand -13.9618 2.77611
lfingers 7.12502
lthumb 12.1659 32.4023
rfemur -6.92868 -8.7307 7.49184
rtibia 49.082
rfoot -30.2899 3.43566
rtoes -13.5135
lfemur -15.0762 -6.44348 -20.9495
ltibia 50.8069
lfoot -27.6764 -3.70305
ltoes -1.11617
26
root -3.08478 16.2265 -2.95753 311.496 -81.4814 -324.192
lowerback 26.0402 -2.74879 -2.30445
upperback 1.69015 -4.88438 -2.97203
thorax -12.7366 -2.29643 -0.269807
lowerneck 4.4057 1.93462 -3.63171
upperneck 3.46559 2.35175 0.765027
head 0.281495 1.10611 0.805284
rclavicle 2.61091e-014 2.64384e-014
rhumerus 59.1755 -8.40562 -111.363
rradius 7.75173
rwrist 80.0478
rhand -16.6196 11.7763
rfingers 7.12502
rthumb 9.60239 -17.9848
lclavicle 2.61091e-014 2.64384e-014
lhumerus 58.416 2.90806 95.8877
lradius 10.5433
lwrist -66.5801
lhand -13.9445 2.68687
lfingers 7.12502
lthumb 12.1827 32.3121
rfemur -7.91867 -9.74242 6.96715
rtibia 51.1003
rfoot -30.1231 4.44998
rtoes -13.171
lfemur -15.8883 -5.9513 -20.8939
ltibia 52.394
lfoot -27.7654 -4.08155
ltoes -1.16044
27
root -3.06824 16.1269 -2.95303 311.006 -81.4958 -323.923
lowerback 26.6477 -2.73201 -2.29066
upperback 1.78191 -4.89066 -2.98666
thorax -12.9613 -2.29783 -0.264893
lowerneck 4.37647 1.94024 -3.54996
upperneck 3.29997 2.36715 0.714584
head 0.236927 1.11797 0.774948
rclavicle 2.23633e-016 3.57812e-015
rhumerus 59.4893 -8.23445 -111.256
rradius 7.84409
rwrist 79.9121
rhand -16.5457 11.7888
rfingers 7.12502
rthumb 9.67368 -17.9691
lclavicle 2.23633e-016 3.57812e-015
lhumerus 58.6578 2.58056 95.3934
lradius 10.6852
lwrist -66.0849
lhand -13.9876 2.56782
lfingers 7.12502
lthumb 12.141 32.1955
rfemur -8.95078 -10.7183 6.46759
rtibia 53.2083
rfoot -29.9432 5.40994
rtoes -12.9723
lfemur -16.7053 -5.42816 -20.8159
ltibia 54.0115
lfoot -27.9141 -4.42061
ltoes -1.32825
28
root -3.05216 16.0229 -2.94855 310.435 -81.499 -323.573
lowerback 27.2706 -2.71276 -2.3009
upperback 1.85312 -4.90029 -2.98956
thorax -13.2136 -2.29777 -0.230876
lowerneck 4.41561 1.94159 -3.47968
upperneck 3.08807 2.37353 0.628626
head 0.167687 1.12549 0.734798
rclavicle -2.65253e-014 -3.16068e-014
rhumerus 59.7931 -8.03371 -111.131
rradius 7.91797
rwrist 79.7493
rhand -16.5219 11.8073
rfingers 7.12502
rthumb 9.69663 -17.9495
lclavicle -2.65253e-014 -3.16068e-014
lhumerus 58.8815 2.31026 94.9978
lradius 10.8088
lwrist -65.6138
lhand -14.2106 2.44477
lfingers 7.12502
lthumb 11.926 32.0851
rfemur -10.034 -11.6512 5.95456
rtibia 55.405
rfoot -29.7316 6.30796
rtoes -12.819
lfemur -17.5435 -4.897 -20.7454
ltibia 55.6582
lfoot -28.0599 -4.84441
ltoes -1.23701
29
root -3.03515 15.9116 -2.94428 309.947 -81.5159 -323.312
lowerback 27.9162 -2.70017 -2.27181
upperback 1.94558 -4.90973 -3.0048
thorax -13.456 -2.30125 -0.232938
lowerneck 4.28017 1.94529 -3.43106
upperneck 2.96995 2.38906 0.60744
head 0.154306 1.13667 0.720534
rclavicle 3.31473e-014 -6.36111e-015
rhumerus 60.1832 -7.83885 -111.033
rradius 7.9563
rwrist 79.5827
rhand -16.4948 11.8519
rfingers 7.12502
rthumb 9.72282 -17.9036
lclavicle 3.31473e-014 -6.36111e-015
lhumerus 59.1835 2.03207 94.6072
lradius 10.9213
lwrist -65.1682
lhand -14.5295 2.29289
lfingers 7.12502
lthumb 11.6185 31.9508
rfemur -11.1532 -12.548 5.46294
rtibia 57.6784
rfoot -29.5135 7.2432
rtoes -12.6258
lfemur -18.4123 -4.34952 -20.649
ltibia 57.3576
lfoot -28.2424 -5.26506
ltoes -1.32075
30
root -3.01847 15.7938 -2.94019 309.271 -81.5383 -322.877
lowerback 28.59 -2.6754 -2.24504
upperback 2.03404 -4.9078 -3.03314
thorax -13.7173 -2.29974 -0.252164
lowerneck 4.15033 1.93171 -3.34149
upperneck 2.84427 2.38314 0.548179
head 0.139207 1.13756 0.687825
rclavicle 1.78658e-014 2.88238e-014
rhumerus 60.5685 -7.6676 -110.938
rradius 8.00656
rwrist 79.3896
rhand -16.5302 11.9254
rfingers 7.12502
rthumb 9.68862 -17.8318
lclavicle 1.78658e-014 2.88238e-014
lhumerus 59.4873 1.68574 94.0964
lradius 10.9958
lwrist -64.5751
lhand -14.958 2.18381
lfingers 7.12502
lthumb 11.2052 31.8646
rfemur -12.3136 -13.4047 4.95158
rtibia 60.0293
rfoot -29.2716 8.04741
rtoes -12.5473
lfemur -19.2884 -3.78356 -20.5625
ltibia 59.1179
lfoot -28.4951 -5.69413
ltoes -1.39056
